<?xml version="1.0" encoding="UTF-8" standalone="no"?>
<!DOCTYPE svg PUBLIC "-//W3C//DTD SVG 1.1//EN"
 "http://www.w3.org/Graphics/SVG/1.1/DTD/svg11.dtd">
<!-- Generated by graphviz version 14.1.2 (20260124.0452)
 -->
<!-- Title: GenetArchitecture Pages: 1 -->
<svg width="2136pt" height="693pt"
 viewBox="0.00 0.00 2136.00 693.00" xmlns="http://www.w3.org/2000/svg" xmlns:xlink="http://www.w3.org/1999/xlink">
<g id="graph0" class="graph" transform="scale(1 1) rotate(0) translate(25.2 667.58)">
<title>GenetArchitecture</title>
<polygon fill="#ececec" stroke="none" points="-25.2,25.2 -25.2,-667.58 2110.5,-667.58 2110.5,25.2 -25.2,25.2"/>
<text xml:space="preserve" text-anchor="middle" x="1042.65" y="-625.08" font-family="Helvetica,sans-Serif" font-size="14.00">Genet Architecture</text>
<g id="clust1" class="cluster">
<title>cluster_core</title>
<path fill="#f3f4f6" stroke="#cdd3db" d="M539.91,-324.38C539.91,-324.38 2065.3,-324.38 2065.3,-324.38 2071.3,-324.38 2077.3,-330.38 2077.3,-336.38 2077.3,-336.38 2077.3,-599.38 2077.3,-599.38 2077.3,-605.38 2071.3,-611.38 2065.3,-611.38 2065.3,-611.38 539.91,-611.38 539.91,-611.38 533.91,-611.38 527.91,-605.38 527.91,-599.38 527.91,-599.38 527.91,-336.38 527.91,-336.38 527.91,-330.38 533.91,-324.38 539.91,-324.38"/>
<text xml:space="preserve" text-anchor="middle" x="1302.6" y="-594.08" font-family="Helvetica,sans-Serif" font-size="14.00">Genet Core</text>
</g>
<g id="clust2" class="cluster">
<title>cluster_workers</title>
<path fill="#ececec" stroke="#4b5563" stroke-dasharray="5,2" d="M971.61,-422.38C971.61,-422.38 1760.64,-422.38 1760.64,-422.38 1766.64,-422.38 1772.64,-428.38 1772.64,-434.38 1772.64,-434.38 1772.64,-501.38 1772.64,-501.38 1772.64,-507.38 1766.64,-513.38 1760.64,-513.38 1760.64,-513.38 971.61,-513.38 971.61,-513.38 965.61,-513.38 959.61,-507.38 959.61,-501.38 959.61,-501.38 959.61,-434.38 959.61,-434.38 959.61,-428.38 965.61,-422.38 971.61,-422.38"/>
<text xml:space="preserve" text-anchor="middle" x="1366.13" y="-496.07" font-family="Helvetica,sans-Serif" font-size="14.00">Workers</text>
</g>
<!-- client -->
<g id="node1" class="node">
<title>client</title>
<path fill="#d5dbe4" stroke="#d5dbe4" d="M153.66,-227.07C153.66,-227.07 12,-227.07 12,-227.07 6,-227.07 0,-221.07 0,-215.07 0,-215.07 0,-197.68 0,-197.68 0,-191.68 6,-185.68 12,-185.68 12,-185.68 153.66,-185.68 153.66,-185.68 159.66,-185.68 165.66,-191.68 165.66,-197.68 165.66,-197.68 165.66,-215.07 165.66,-215.07 165.66,-221.07 159.66,-227.07 153.66,-227.07"/>
<text xml:space="preserve" text-anchor="middle" x="82.83" y="-207.53" font-family="Helvetica,sans-Serif" font-weight="bold" font-size="13.00">Client SDK</text>
<text xml:space="preserve" text-anchor="middle" x="82.83" y="-194.03" font-family="Helvetica,sans-Serif" font-weight="bold" font-size="13.00">Browser / kubectl / IDE</text>
</g>
<!-- frontend_panel -->
<g id="node2" class="node">
<title>frontend_panel</title>
<path fill="#ffffff" stroke="none" d="M388.91,-573.5C388.91,-573.5 299.91,-573.5 299.91,-573.5 293.91,-573.5 287.91,-567.5 287.91,-561.5 287.91,-561.5 287.91,-291.25 287.91,-291.25 287.91,-285.25 293.91,-279.25 299.91,-279.25 299.91,-279.25 388.91,-279.25 388.91,-279.25 394.91,-279.25 400.91,-285.25 400.91,-291.25 400.91,-291.25 400.91,-561.5 400.91,-561.5 400.91,-567.5 394.91,-573.5 388.91,-573.5"/>
<polygon fill="#cbd2ee" stroke="none" points="287.91,-279.25 287.91,-573.5 400.91,-573.5 400.91,-279.25 287.91,-279.25"/>
<text xml:space="preserve" text-anchor="start" x="309.91" y="-537.3" font-family="Helvetica,sans-Serif" font-weight="bold" font-size="16.00">Frontend</text>
<polygon fill="#eef1f9" stroke="none" points="299.91,-478.25 299.91,-513 388.91,-513 388.91,-478.25 299.91,-478.25"/>
<polygon fill="none" stroke="#eef1f9" points="299.91,-478.25 299.91,-513 388.91,-513 388.91,-478.25 299.91,-478.25"/>
<text xml:space="preserve" text-anchor="start" x="316.66" y="-490.6" font-family="Helvetica,sans-Serif" font-size="12.00">React App</text>
<polygon fill="#eef1f9" stroke="none" points="299.91,-431.5 299.91,-466.25 388.91,-466.25 388.91,-431.5 299.91,-431.5"/>
<polygon fill="none" stroke="#eef1f9" points="299.91,-431.5 299.91,-466.25 388.91,-466.25 388.91,-431.5 299.91,-431.5"/>
<text xml:space="preserve" text-anchor="start" x="326.41" y="-443.85" font-family="Helvetica,sans-Serif" font-size="12.00">Router</text>
<polygon fill="#eef1f9" stroke="none" points="299.91,-384.75 299.91,-419.5 388.91,-419.5 388.91,-384.75 299.91,-384.75"/>
<polygon fill="none" stroke="#eef1f9" points="299.91,-384.75 299.91,-419.5 388.91,-419.5 388.91,-384.75 299.91,-384.75"/>
<text xml:space="preserve" text-anchor="start" x="314.78" y="-397.1" font-family="Helvetica,sans-Serif" font-size="12.00">Dashboard</text>
<polygon fill="#eef1f9" stroke="none" points="299.91,-338 299.91,-372.75 388.91,-372.75 388.91,-338 299.91,-338"/>
<polygon fill="none" stroke="#eef1f9" points="299.91,-338 299.91,-372.75 388.91,-372.75 388.91,-338 299.91,-338"/>
<text xml:space="preserve" text-anchor="start" x="316.28" y="-350.35" font-family="Helvetica,sans-Serif" font-size="12.00">Pod Detail</text>
<polygon fill="#eef1f9" stroke="none" points="299.91,-291.25 299.91,-326 388.91,-326 388.91,-291.25 299.91,-291.25"/>
<polygon fill="none" stroke="#eef1f9" points="299.91,-291.25 299.91,-326 388.91,-326 388.91,-291.25 299.91,-291.25"/>
<text xml:space="preserve" text-anchor="start" x="318.16" y="-303.6" font-family="Helvetica,sans-Serif" font-size="12.00">Axios /api</text>
</g>
<!-- client&#45;&gt;frontend_panel -->
<g id="edge9" class="edge">
<title>client&#45;&gt;frontend_panel</title>
<path fill="none" stroke="#1f2937" stroke-width="1.35" d="M108.72,-227.47C147.85,-260.63 224.96,-325.99 280.12,-372.74"/>
<polygon fill="#1f2937" stroke="#1f2937" stroke-width="1.35" points="278.13,-374.95 286.53,-378.17 281.97,-370.41 278.13,-374.95"/>
<text xml:space="preserve" text-anchor="middle" x="226.78" y="-344.1" font-family="Helvetica,sans-Serif" font-size="11.00">UI request</text>
</g>
<!-- deps_panel -->
<g id="node8" class="node">
<title>deps_panel</title>
<path fill="#ffffff" stroke="none" d="M1164.57,-316.75C1164.57,-316.75 922.82,-316.75 922.82,-316.75 916.82,-316.75 910.82,-310.75 910.82,-304.75 910.82,-304.75 910.82,-12 910.82,-12 910.82,-6 916.82,0 922.82,0 922.82,0 1164.57,0 1164.57,0 1170.57,0 1176.57,-6 1176.57,-12 1176.57,-12 1176.57,-304.75 1176.57,-304.75 1176.57,-310.75 1170.57,-316.75 1164.57,-316.75"/>
<polygon fill="#d6dce5" stroke="none" points="910.82,0 910.82,-316.75 1176.57,-316.75 1176.57,0 910.82,0"/>
<text xml:space="preserve" text-anchor="start" x="954.82" y="-280.55" font-family="Helvetica,sans-Serif" font-weight="bold" font-size="16.00">Platform Dependencies</text>
<polygon fill="#f2f4f7" stroke="none" points="922.82,-210.25 922.82,-256.25 1164.57,-256.25 1164.57,-210.25 922.82,-210.25"/>
<polygon fill="none" stroke="#f2f4f7" points="922.82,-210.25 922.82,-256.25 1164.57,-256.25 1164.57,-210.25 922.82,-210.25"/>
<text xml:space="preserve" text-anchor="start" x="999.07" y="-234.85" font-family="Helvetica,sans-Serif" font-weight="bold" font-size="12.00">Kubernetes API</text>
<text xml:space="preserve" text-anchor="start" x="933.82" y="-222.85" font-family="Helvetica,sans-Serif" font-size="12.00">Pods / Namespaces / PVC / Jobs / RBAC</text>
<polygon fill="#f2f4f7" stroke="none" points="922.82,-163.5 922.82,-198.25 1164.57,-198.25 1164.57,-163.5 922.82,-163.5"/>
<polygon fill="none" stroke="#f2f4f7" points="922.82,-163.5 922.82,-198.25 1164.57,-198.25 1164.57,-163.5 922.82,-163.5"/>
<text xml:space="preserve" text-anchor="start" x="979.94" y="-176.85" font-family="Helvetica,sans-Serif" font-weight="bold" font-size="12.00">OAuth / OIDC Provider</text>
<polygon fill="#f2f4f7" stroke="none" points="922.82,-116.75 922.82,-151.5 1164.57,-151.5 1164.57,-116.75 922.82,-116.75"/>
<polygon fill="none" stroke="#f2f4f7" points="922.82,-116.75 922.82,-151.5 1164.57,-151.5 1164.57,-116.75 922.82,-116.75"/>
<text xml:space="preserve" text-anchor="start" x="1008.82" y="-130.1" font-family="Helvetica,sans-Serif" font-weight="bold" font-size="12.00">Prometheus</text>
<polygon fill="#f2f4f7" stroke="none" points="922.82,-70 922.82,-104.75 1164.57,-104.75 1164.57,-70 922.82,-70"/>
<polygon fill="none" stroke="#f2f4f7" points="922.82,-70 922.82,-104.75 1164.57,-104.75 1164.57,-70 922.82,-70"/>
<text xml:space="preserve" text-anchor="start" x="990.07" y="-83.35" font-family="Helvetica,sans-Serif" font-weight="bold" font-size="12.00">Container Registry</text>
<polygon fill="#f2f4f7" stroke="none" points="922.82,-12 922.82,-58 1164.57,-58 1164.57,-12 922.82,-12"/>
<polygon fill="none" stroke="#f2f4f7" points="922.82,-12 922.82,-58 1164.57,-58 1164.57,-12 922.82,-12"/>
<text xml:space="preserve" text-anchor="start" x="993.07" y="-36.6" font-family="Helvetica,sans-Serif" font-weight="bold" font-size="12.00">Cleanup CronJob</text>
<text xml:space="preserve" text-anchor="start" x="981.44" y="-24.6" font-family="Helvetica,sans-Serif" font-size="12.00">(backend/cmd/cleanup)</text>
</g>
<!-- client&#45;&gt;deps_panel -->
<g id="edge14" class="edge">
<title>client&#45;&gt;deps_panel</title>
<path fill="none" stroke="#0f766e" stroke-width="1.35" stroke-dasharray="5,2" d="M166,-202.26C329.5,-194.08 697.36,-175.66 900.76,-165.48"/>
<polygon fill="#0f766e" stroke="#0f766e" stroke-width="1.35" points="900.84,-168.46 909.18,-165.06 900.54,-162.51 900.84,-168.46"/>
<text xml:space="preserve" text-anchor="middle" x="468.41" y="-189.96" font-family="Helvetica,sans-Serif" font-size="11.00" fill="#0f766e">kubectl direct</text>
</g>
<!-- coordinator -->
<g id="node3" class="node">
<title>coordinator</title>
<path fill="#ccd3dd" stroke="#ccd3dd" d="M754.82,-478.57C754.82,-478.57 547.91,-478.57 547.91,-478.57 541.91,-478.57 535.91,-472.57 535.91,-466.57 535.91,-466.57 535.91,-446.18 535.91,-446.18 535.91,-440.18 541.91,-434.18 547.91,-434.18 547.91,-434.18 754.82,-434.18 754.82,-434.18 760.82,-434.18 766.82,-440.18 766.82,-446.18 766.82,-446.18 766.82,-466.57 766.82,-466.57 766.82,-472.57 760.82,-478.57 754.82,-478.57"/>
<text xml:space="preserve" text-anchor="middle" x="651.36" y="-458.07" font-family="Helvetica,sans-Serif" font-weight="bold" font-size="14.00">Coordinator</text>
<text xml:space="preserve" text-anchor="middle" x="651.36" y="-443.07" font-family="Helvetica,sans-Serif" font-weight="bold" font-size="14.00">Gin API + Auth + Route Dispatch</text>
</g>
<!-- frontend_panel&#45;&gt;coordinator -->
<g id="edge10" class="edge">
<title>frontend_panel&#45;&gt;coordinator</title>
<path fill="none" stroke="#2563eb" stroke-width="1.35" d="M400.64,-431.81C435.43,-435.23 481.83,-439.8 525.19,-444.06"/>
<polygon fill="#2563eb" stroke="#2563eb" stroke-width="1.35" points="524.76,-447.01 533.51,-444.88 525.35,-441.09 524.76,-447.01"/>
<text xml:space="preserve" text-anchor="middle" x="468.41" y="-442.93" font-family="Helvetica,sans-Serif" font-size="11.00" fill="#2563eb">REST /api</text>
</g>
<!-- pod_svc -->
<g id="node4" class="node">
<title>pod_svc</title>
<path fill="#f4deba" stroke="#f4deba" d="M1107.77,-482.7C1107.77,-482.7 979.61,-482.7 979.61,-482.7 973.61,-482.7 967.61,-476.7 967.61,-470.7 967.61,-470.7 967.61,-442.05 967.61,-442.05 967.61,-436.05 973.61,-430.05 979.61,-430.05 979.61,-430.05 1107.77,-430.05 1107.77,-430.05 1113.77,-430.05 1119.77,-436.05 1119.77,-442.05 1119.77,-442.05 1119.77,-470.7 1119.77,-470.7 1119.77,-476.7 1113.77,-482.7 1107.77,-482.7"/>
<text xml:space="preserve" text-anchor="middle" x="1043.69" y="-464.1" font-family="Helvetica,sans-Serif" font-weight="bold" font-size="12.00">Pod Service</text>
<text xml:space="preserve" text-anchor="middle" x="1043.69" y="-451.35" font-family="Helvetica,sans-Serif" font-weight="bold" font-size="12.00">Create / Delete / Extend</text>
<text xml:space="preserve" text-anchor="middle" x="1043.69" y="-438.6" font-family="Helvetica,sans-Serif" font-weight="bold" font-size="12.00">Logs / Events / Commit</text>
</g>
<!-- coordinator&#45;&gt;pod_svc -->
<g id="edge3" class="edge">
<title>coordinator&#45;&gt;pod_svc</title>
<path fill="none" stroke="#1f2937" stroke-width="1.35" d="M767.1,-456.38C827.87,-456.38 901.25,-456.38 957,-456.38"/>
<polygon fill="#1f2937" stroke="#1f2937" stroke-width="1.35" points="956.66,-459.35 965.16,-456.38 956.66,-453.4 956.66,-459.35"/>
<text xml:space="preserve" text-anchor="middle" x="838.82" y="-457.93" font-family="Helvetica,sans-Serif" font-size="11.00">management</text>
</g>
<!-- cluster_svc -->
<g id="node5" class="node">
<title>cluster_svc</title>
<path fill="#9fe1d4" stroke="#9fe1d4" d="M1371.73,-482.7C1371.73,-482.7 1261.57,-482.7 1261.57,-482.7 1255.57,-482.7 1249.57,-476.7 1249.57,-470.7 1249.57,-470.7 1249.57,-442.05 1249.57,-442.05 1249.57,-436.05 1255.57,-430.05 1261.57,-430.05 1261.57,-430.05 1371.73,-430.05 1371.73,-430.05 1377.73,-430.05 1383.73,-436.05 1383.73,-442.05 1383.73,-442.05 1383.73,-470.7 1383.73,-470.7 1383.73,-476.7 1377.73,-482.7 1371.73,-482.7"/>
<text xml:space="preserve" text-anchor="middle" x="1316.65" y="-464.1" font-family="Helvetica,sans-Serif" font-weight="bold" font-size="12.00">Cluster Service</text>
<text xml:space="preserve" text-anchor="middle" x="1316.65" y="-451.35" font-family="Helvetica,sans-Serif" font-weight="bold" font-size="12.00">GPU Overview</text>
<text xml:space="preserve" text-anchor="middle" x="1316.65" y="-438.6" font-family="Helvetica,sans-Serif" font-weight="bold" font-size="12.00">Prometheus Metrics</text>
</g>
<!-- coordinator&#45;&gt;cluster_svc -->
<g id="edge4" class="edge">
<title>coordinator&#45;&gt;cluster_svc</title>
<path fill="none" stroke="#1f2937" stroke-width="1.35" d="M740.57,-479.07C845.2,-502.71 1024.59,-532.86 1176.57,-506.38 1199.7,-502.34 1224.06,-494.81 1245.81,-486.79"/>
<polygon fill="#1f2937" stroke="#1f2937" stroke-width="1.35" points="1246.81,-489.59 1253.7,-483.8 1244.7,-484.03 1246.81,-489.59"/>
</g>
<!-- image_svc -->
<g id="node6" class="node">
<title>image_svc</title>
<path fill="#a9d9ec" stroke="#a9d9ec" d="M1752.64,-482.7C1752.64,-482.7 1619.23,-482.7 1619.23,-482.7 1613.23,-482.7 1607.23,-476.7 1607.23,-470.7 1607.23,-470.7 1607.23,-442.05 1607.23,-442.05 1607.23,-436.05 1613.23,-430.05 1619.23,-430.05 1619.23,-430.05 1752.64,-430.05 1752.64,-430.05 1758.64,-430.05 1764.64,-436.05 1764.64,-442.05 1764.64,-442.05 1764.64,-470.7 1764.64,-470.7 1764.64,-476.7 1758.64,-482.7 1752.64,-482.7"/>
<text xml:space="preserve" text-anchor="middle" x="1685.93" y="-464.1" font-family="Helvetica,sans-Serif" font-weight="bold" font-size="12.00">Image &amp; Access Service</text>
<text xml:space="preserve" text-anchor="middle" x="1685.93" y="-451.35" font-family="Helvetica,sans-Serif" font-weight="bold" font-size="12.00">Image Search / Tags</text>
<text xml:space="preserve" text-anchor="middle" x="1685.93" y="-438.6" font-family="Helvetica,sans-Serif" font-weight="bold" font-size="12.00">Kubeconfig / OIDC</text>
</g>
<!-- coordinator&#45;&gt;image_svc -->
<g id="edge5" class="edge">
<title>coordinator&#45;&gt;image_svc</title>
<path fill="none" stroke="#1f2937" stroke-width="1.35" d="M706.14,-479C734.45,-490.06 770.01,-502.62 802.82,-510.38 849.87,-521.5 862.56,-520.48 910.82,-523.38 1120.76,-535.96 1175.01,-532.22 1383.73,-506.38 1455.71,-497.46 1536.8,-483.79 1596.69,-473"/>
<polygon fill="#1f2937" stroke="#1f2937" stroke-width="1.35" points="1597.02,-475.96 1604.86,-471.52 1595.96,-470.11 1597.02,-475.96"/>
</g>
<!-- coordinator&#45;&gt;deps_panel -->
<g id="edge12" class="edge">
<title>coordinator&#45;&gt;deps_panel</title>
<path fill="none" stroke="#111827" stroke-width="1.35" d="M682.02,-433.73C728.81,-398.01 822.68,-326.35 902.93,-265.08"/>
<polygon fill="#111827" stroke="#111827" stroke-width="1.35" points="904.57,-267.57 909.52,-260.05 900.96,-262.84 904.57,-267.57"/>
<text xml:space="preserve" text-anchor="middle" x="838.82" y="-335.62" font-family="Helvetica,sans-Serif" font-size="11.00">OAuth callback</text>
</g>
<!-- pod_svc&#45;&gt;cluster_svc -->
<!-- adapter -->
<g id="node7" class="node">
<title>adapter</title>
<path fill="#dce2ea" stroke="#dce2ea" d="M2057.3,-396.7C2057.3,-396.7 1849.64,-396.7 1849.64,-396.7 1843.64,-396.7 1837.64,-390.7 1837.64,-384.7 1837.64,-384.7 1837.64,-356.05 1837.64,-356.05 1837.64,-350.05 1843.64,-344.05 1849.64,-344.05 1849.64,-344.05 2057.3,-344.05 2057.3,-344.05 2063.3,-344.05 2069.3,-350.05 2069.3,-356.05 2069.3,-356.05 2069.3,-384.7 2069.3,-384.7 2069.3,-390.7 2063.3,-396.7 2057.3,-396.7"/>
<text xml:space="preserve" text-anchor="middle" x="1953.47" y="-378.1" font-family="Helvetica,sans-Serif" font-size="12.00">Adapter Layer</text>
<text xml:space="preserve" text-anchor="middle" x="1953.47" y="-365.35" font-family="Helvetica,sans-Serif" font-size="12.00">internal/k8s + internal/prometheus</text>
<text xml:space="preserve" text-anchor="middle" x="1953.47" y="-352.6" font-family="Helvetica,sans-Serif" font-size="12.00">internal/registry + internal/oidc + models</text>
</g>
<!-- pod_svc&#45;&gt;adapter -->
<g id="edge6" class="edge">
<title>pod_svc&#45;&gt;adapter</title>
<path fill="none" stroke="#1f2937" stroke-width="1.35" d="M1120.02,-435.07C1158.49,-424.93 1206.22,-413.5 1249.57,-406.38 1449.54,-373.51 1685.42,-368.12 1826.76,-368.4"/>
<polygon fill="#1f2937" stroke="#1f2937" stroke-width="1.35" points="1826.64,-371.37 1835.14,-368.42 1826.65,-365.42 1826.64,-371.37"/>
</g>
<!-- cluster_svc&#45;&gt;image_svc -->
<!-- cluster_svc&#45;&gt;adapter -->
<g id="edge7" class="edge">
<title>cluster_svc&#45;&gt;adapter</title>
<path fill="none" stroke="#1f2937" stroke-width="1.35" d="M1384.16,-443.58C1442.73,-432.63 1530.41,-417 1607.23,-406.38 1679.76,-396.34 1761.21,-387.72 1826.77,-381.44"/>
<polygon fill="#1f2937" stroke="#1f2937" stroke-width="1.35" points="1826.94,-384.41 1835.12,-380.64 1826.38,-378.49 1826.94,-384.41"/>
</g>
<!-- image_svc&#45;&gt;adapter -->
<g id="edge8" class="edge">
<title>image_svc&#45;&gt;adapter</title>
<path fill="none" stroke="#1f2937" stroke-width="1.35" d="M1764.81,-431.15C1794.64,-421.49 1828.95,-410.38 1860.01,-400.32"/>
<polygon fill="#1f2937" stroke="#1f2937" stroke-width="1.35" points="1860.86,-403.17 1868.03,-397.72 1859.02,-397.51 1860.86,-403.17"/>
</g>
<!-- adapter&#45;&gt;deps_panel -->
<g id="edge11" class="edge">
<title>adapter&#45;&gt;deps_panel</title>
<path fill="none" stroke="#1f2937" stroke-width="1.35" d="M1837.78,-343.59C1672.05,-304.89 1365.83,-233.37 1186.26,-191.43"/>
<polygon fill="#1f2937" stroke="#1f2937" stroke-width="1.35" points="1187.15,-188.59 1178.2,-189.55 1185.8,-194.38 1187.15,-188.59"/>
<text xml:space="preserve" text-anchor="middle" x="1495.48" y="-282.38" font-family="Helvetica,sans-Serif" font-size="11.00">Resource / Metrics / Image Ops</text>
</g>
<!-- deps_panel&#45;&gt;pod_svc -->
<g id="edge13" class="edge">
<title>deps_panel&#45;&gt;pod_svc</title>
<path fill="none" stroke="#374151" stroke-width="1.35" d="M1043.69,-327.05C1043.69,-361.84 1043.69,-395.18 1043.69,-419.29"/>
<polygon fill="#374151" stroke="#374151" stroke-width="1.35" points="1046.67,-327.08 1043.7,-318.58 1040.72,-327.08 1046.67,-327.08"/>
<polygon fill="#374151" stroke="#374151" stroke-width="1.35" points="1040.72,-419.14 1043.7,-427.64 1046.67,-419.15 1040.72,-419.14"/>
<text xml:space="preserve" text-anchor="middle" x="1034.69" y="-368.95" font-family="Helvetica,sans-Serif" font-size="11.00">state sync + scheduled cleanup</text>
</g>
</g>
</svg>
